<?xml version="1.0" standalone="no"?>
<!DOCTYPE svg PUBLIC "-//W3C//DTD SVG 20010904//EN"
 "http://www.w3.org/TR/2001/REC-SVG-20010904/DTD/svg10.dtd">
<svg version="1.0" xmlns="http://www.w3.org/2000/svg"
 width="456.000000pt" height="109.000000pt" viewBox="0 0 456.000000 109.000000"
 preserveAspectRatio="xMidYMid meet">
<metadata>
Created by potrace 1.16, written by Peter Selinger 2001-2019
</metadata>
<g transform="translate(0.000000,109.000000) scale(0.100000,-0.100000)"
fill="#000000" stroke="none">
<path d="M164 968 c-12 -5 -27 -21 -33 -34 -16 -36 -15 -787 1 -817 25 -47 18
-46 500 -47 l457 0 28 24 28 24 0 407 0 407 -28 24 -28 24 -452 -1 c-289 0
-460 -4 -473 -11z m459 -220 l39 -68 -42 -75 -42 -76 -81 3 -82 3 -43 72 -43
72 41 71 41 71 87 -3 86 -3 39 -67z m277 -158 l41 -70 -42 -75 -43 -75 -82 0
-83 0 -41 75 -41 75 32 58 c48 85 42 82 135 82 l83 0 41 -70z m-280 -149 c22
-38 40 -72 40 -76 0 -4 -19 -38 -41 -76 l-41 -69 -82 0 -82 0 -42 73 -42 74
41 71 42 72 83 0 83 0 41 -69z"/>
<path d="M386 740 l-36 -61 37 -64 37 -65 72 0 72 0 37 66 37 65 -34 57 -34
57 -76 3 -77 3 -35 -61z"/>
<path d="M693 628 c-5 -7 -22 -34 -37 -61 l-27 -47 36 -65 37 -65 72 0 72 0
37 65 37 64 -36 61 -35 60 -73 0 c-47 0 -77 -5 -83 -12z"/>
<path d="M386 428 l-35 -62 34 -61 34 -60 75 -3 75 -3 35 61 c20 34 36 63 36
65 0 2 -16 31 -35 64 l-36 61 -74 0 -74 0 -35 -62z"/>
<path d="M2338 709 c-16 -9 -18 -28 -18 -174 0 -90 3 -170 6 -179 3 -9 16 -16
29 -16 21 0 23 4 27 90 5 97 21 130 64 130 46 0 62 -35 67 -155 2 -57 3 -60
27 -60 l25 0 0 107 c0 103 -1 109 -26 134 -31 31 -86 35 -124 10 -13 -9 -26
-16 -29 -16 -3 0 -6 30 -8 67 -3 68 -10 80 -40 62z"/>
<path d="M4181 706 c-8 -9 -11 -68 -9 -187 l3 -174 25 0 c21 0 25 5 28 35 2
23 12 41 27 52 23 17 23 17 64 -37 26 -35 49 -55 62 -55 37 0 32 28 -17 91
l-48 62 42 36 c26 23 42 45 42 59 0 39 -36 25 -105 -39 l-65 -61 0 110 c0 91
-3 111 -16 116 -21 8 -20 8 -33 -8z"/>
<path d="M1364 685 c-13 -32 4 -45 56 -45 l50 0 0 -137 c0 -76 4 -144 9 -151
4 -8 19 -12 32 -10 24 3 24 4 27 150 l3 147 52 3 c48 3 52 5 52 28 l0 25 -138
3 c-116 2 -138 0 -143 -13z"/>
<path d="M3294 685 c-13 -32 4 -45 56 -45 l50 0 0 -134 c0 -74 3 -141 6 -150
8 -21 50 -21 58 0 3 9 6 76 6 149 l0 134 53 3 c48 3 52 5 52 28 l0 25 -138 3
c-116 2 -138 0 -143 -13z"/>
<path d="M1802 610 c-132 -30 -136 -228 -5 -271 60 -20 143 10 143 52 0 23 -7
24 -55 3 -50 -20 -91 -11 -110 27 l-16 29 85 0 c101 0 116 5 116 37 0 83 -76
142 -158 123z m83 -73 c28 -40 20 -47 -55 -47 -38 0 -70 2 -70 5 0 2 5 15 11
29 21 46 86 53 114 13z"/>
<path d="M2125 610 c-48 -11 -74 -32 -96 -77 -28 -58 -19 -112 27 -158 43 -44
90 -53 150 -30 50 19 63 37 44 60 -11 14 -15 14 -36 0 -26 -17 -77 -20 -104
-5 -10 5 -23 23 -28 39 -29 83 56 154 126 105 18 -12 26 -13 37 -4 22 18 18
34 -12 51 -38 22 -72 28 -108 19z"/>
<path d="M2763 608 c-18 -4 -35 -13 -39 -19 -4 -7 -13 -4 -26 7 -14 14 -23 16
-36 8 -14 -9 -18 -30 -20 -105 -4 -127 2 -159 32 -159 31 0 36 16 36 109 0 83
14 111 56 111 47 0 59 -23 64 -122 5 -91 5 -93 30 -93 24 0 25 2 28 85 5 127
-11 163 -78 183 -8 2 -29 0 -47 -5z"/>
<path d="M3065 610 c-16 -3 -40 -13 -52 -20 -29 -19 -63 -81 -63 -117 0 -68
76 -142 145 -143 75 0 145 69 145 144 0 90 -86 157 -175 136z m90 -76 c50 -54
18 -144 -51 -144 -49 0 -70 14 -83 53 -30 89 72 158 134 91z"/>
<path d="M3935 605 c-132 -46 -117 -245 21 -271 40 -7 122 19 131 43 11 29
-14 37 -56 19 -41 -19 -72 -16 -103 12 -37 32 -22 41 75 44 l92 3 3 38 c7 85
-77 142 -163 112z m88 -63 c9 -8 17 -23 17 -34 0 -16 -8 -18 -65 -18 -57 0
-65 2 -65 18 0 20 24 46 50 54 19 6 40 -1 63 -20z"/>
<path d="M3646 595 c-8 -21 -8 -218 0 -239 3 -9 16 -16 29 -16 20 0 23 6 28
76 6 85 24 121 68 136 21 7 29 16 29 34 0 33 -43 33 -75 -2 l-23 -25 -4 23
c-4 28 -42 37 -52 13z"/>
</g>
</svg>
